<svg preserveAspectRatio="none" width="100%" height="100%" overflow="visible" style="display: block;" viewBox="0 0 16 16" fill="none" xmlns="http://www.w3.org/2000/svg">
<g id="Frame" clip-path="url(#clip0_0_500)">
<path id="Vector" d="M7.78165 0.834823C7.85768 0.831717 7.93356 0.844011 8.00473 0.870967C8.07589 0.897923 8.14087 0.938984 8.19577 0.991684C8.25067 1.04438 8.29435 1.10764 8.32418 1.17764C8.35402 1.24765 8.3694 1.32296 8.3694 1.39906C8.3694 1.47516 8.35402 1.55047 8.32418 1.62048C8.29435 1.69048 8.25067 1.75373 8.19577 1.80643C8.14087 1.85913 8.07589 1.90019 8.00473 1.92715C7.93356 1.95411 7.85768 1.9664 7.78165 1.96329H3.83247C3.23339 1.96329 2.65885 2.20128 2.23524 2.62489C1.81163 3.0485 1.57365 3.62304 1.57365 4.22212V11.8456C2.27355 10.8836 3.23346 10.1412 4.34063 9.70576C5.44779 9.2703 6.65623 9.15981 7.824 9.38729L8.35576 9.49082C8.56941 9.31294 8.79812 9.13506 9.04282 8.96094C11.36 7.32329 13.2019 7.18776 14.2005 7.29788C14.9393 7.37882 15.3271 8.032 15.3271 8.63059V12.3275C15.3271 14.1995 13.8099 15.7167 11.9388 15.7167H3.83247C2.93385 15.7167 2.07204 15.3597 1.43663 14.7243C0.801209 14.0889 0.444235 13.2271 0.444235 12.3285V4.22212C0.444235 3.3235 0.801209 2.46169 1.43663 1.82627C2.07204 1.19086 2.93385 0.833882 3.83247 0.833882H7.78165V0.834823ZM7.35435 10.4536C6.30386 10.3029 5.23248 10.4822 4.28831 10.9668C3.34414 11.4514 2.5738 12.2172 2.08376 13.1586L1.90494 13.5021C2.10594 13.8333 2.38889 14.1072 2.72651 14.2973C3.06413 14.4874 3.44502 14.5872 3.83247 14.5873H5.31765C5.32141 14.5704 5.32706 14.5506 5.33082 14.528C5.35435 14.4122 5.38729 14.2532 5.43247 14.0668C5.52471 13.6904 5.66965 13.1991 5.92 12.6438C6.28215 11.8438 6.76635 11.105 7.35529 10.4536H7.35435ZM14.0772 8.42071C13.3506 8.34071 11.7845 8.40659 9.696 9.88424C8.16941 10.9638 7.37788 12.1544 6.94965 13.1068C6.77206 13.5022 6.63123 13.913 6.52894 14.3341C6.50635 14.4264 6.48941 14.5111 6.47247 14.5873H11.9388C12.5379 14.5873 13.1124 14.3493 13.5361 13.9257C13.9597 13.5021 14.1976 12.9275 14.1976 12.3285V8.62965C14.1994 8.5699 14.1819 8.51116 14.1478 8.46212C14.1398 8.45044 14.1293 8.44067 14.1171 8.43351C14.1049 8.42635 14.0913 8.42198 14.0772 8.42071Z" fill="var(--fill-0, black)"/>
<path id="Vector_2" d="M12.4009 0.508235C12.4276 0.442058 12.4734 0.385361 12.5325 0.345432C12.5917 0.305504 12.6614 0.284168 12.7327 0.284168C12.804 0.284168 12.8738 0.305504 12.9329 0.345432C12.992 0.385361 13.0378 0.442058 13.0645 0.508235L13.2433 0.939294C13.5433 1.66988 14.1123 2.25743 14.8329 2.58071L15.3384 2.80659C15.4032 2.83649 15.4581 2.88434 15.4966 2.94447C15.5351 3.0046 15.5555 3.07449 15.5555 3.14588C15.5555 3.21727 15.5351 3.28717 15.4966 3.3473C15.4581 3.40743 15.4032 3.45528 15.3384 3.48518L14.8019 3.72424C14.0999 4.03885 13.5411 4.60497 13.2358 5.31106L13.0626 5.71106C13.0354 5.77608 12.9895 5.83161 12.9308 5.87066C12.8721 5.90971 12.8032 5.93054 12.7327 5.93054C12.6622 5.93054 12.5933 5.90971 12.5346 5.87066C12.4759 5.83161 12.4301 5.77608 12.4028 5.71106L12.2287 5.31106C11.9233 4.60503 11.3645 4.03893 10.6626 3.72424L10.1261 3.48518C10.061 3.45539 10.0059 3.40754 9.96718 3.3473C9.92851 3.28707 9.90794 3.21699 9.90794 3.14541C9.90794 3.07383 9.92851 3.00375 9.96718 2.94352C10.0059 2.88329 10.061 2.83543 10.1261 2.80565L10.6325 2.58071C11.3527 2.25724 11.9214 1.66971 12.2212 0.939294L12.4 0.508235H12.4009Z" fill="var(--fill-0, black)"/>
</g>
<defs>
<clipPath id="clip0_0_500">
<rect width="16" height="16" fill="white"/>
</clipPath>
</defs>
</svg>
