<svg preserveAspectRatio="none" width="100%" height="100%" overflow="visible" style="display: block;" viewBox="0 0 11.333 12.667" fill="none" xmlns="http://www.w3.org/2000/svg">
<path id="Union" d="M8.07715 0C8.22034 4.66985e-05 8.35969 0.0464093 8.47461 0.131836L11.0645 2.05859C11.2336 2.18439 11.333 2.38299 11.333 2.59375V11.333C11.333 12.0694 10.7364 12.667 10 12.667H1.33301C0.596815 12.6668 0 12.0693 0 11.333V1.33301C0.000263731 0.596988 0.596977 0.000218989 1.33301 0H8.07715ZM1.33301 11.333H10V2.92871L7.85645 1.33301H1.33301V11.333ZM7.66699 8.33398C8.03502 8.33412 8.33292 8.63197 8.33301 9C8.33301 9.36811 8.03507 9.66686 7.66699 9.66699H3.66699C3.2988 9.66699 3 9.36819 3 9C3.00009 8.63189 3.29886 8.33398 3.66699 8.33398H7.66699ZM7.66699 5.66699C8.03507 5.66712 8.33301 5.96588 8.33301 6.33398C8.33274 6.70187 8.03491 6.99987 7.66699 7H3.66699C3.29897 7 3.00026 6.70195 3 6.33398C3 5.96579 3.2988 5.66699 3.66699 5.66699H7.66699ZM5.66699 3C6.03507 3.00013 6.33301 3.29888 6.33301 3.66699C6.33292 4.03503 6.03502 4.33385 5.66699 4.33398H3.66699C3.29886 4.33398 3.00009 4.03511 3 3.66699C3 3.2988 3.2988 3 3.66699 3H5.66699Z" fill="var(--fill-0, black)" fill-opacity="0.87"/>
</svg>
