<svg preserveAspectRatio="none" width="100%" height="100%" overflow="visible" style="display: block;" viewBox="0 0 4.81262 6.40625" fill="none" xmlns="http://www.w3.org/2000/svg">
<g id="eye">
<ellipse id="Ellipse 105" cx="2.40637" cy="3.20312" rx="2.40625" ry="3.20312" fill="url(#paint0_linear_0_717)"/>
<rect id="Rectangle 11" opacity="0.3" x="1.00012" y="4.1875" width="0.8125" height="0.8125" rx="0.2" fill="var(--fill-0, white)"/>
<path id="Union" fill-rule="evenodd" clip-rule="evenodd" d="M1.91624 0.573261C2.02242 0.392357 2.29021 0.392223 2.3965 0.572999L2.41664 0.61459L2.69052 1.30934L3.38553 1.58348C3.62165 1.67666 3.62165 2.01084 3.38553 2.10402L2.69052 2.3779L2.41664 3.07291C2.32346 3.30903 1.98928 3.30903 1.8961 3.07291L1.62197 2.3779L0.927211 2.10402C0.691095 2.01084 0.69109 1.67666 0.927211 1.58348L1.62197 1.30934L1.8961 0.61459L1.91624 0.573261Z" fill="var(--fill-0, white)"/>
</g>
<defs>
<linearGradient id="paint0_linear_0_717" x1="2.40637" y1="2.22826" x2="2.40637" y2="6.60404" gradientUnits="userSpaceOnUse">
<stop stop-color="#2A1EA7"/>
<stop offset="1" stop-color="#436DF6"/>
</linearGradient>
</defs>
</svg>
