<svg preserveAspectRatio="none" width="100%" height="100%" overflow="visible" style="display: block;" viewBox="0 0 16 15.1971" fill="none" xmlns="http://www.w3.org/2000/svg">
<g id="Frame 2053143888">
<path id="Vector" d="M2.71083 3.32684C3.74178 2.05056 5.19943 1.19009 6.81497 0.904115C8.20632 0.657822 9.63396 0.851952 10.9018 1.45024C11.2415 1.61055 11.3446 2.0318 11.1512 2.35382C10.9579 2.67575 10.5415 2.77571 10.1979 2.62417C9.34062 2.24608 8.39637 2.09424 7.45654 2.18908C6.29024 2.30677 5.19315 2.79807 4.32868 3.58979C3.46422 4.3815 2.87863 5.43129 2.65913 6.58278C2.43963 7.73428 2.59796 8.92587 3.11055 9.98009C3.53932 10.8603 4.19775 11.6084 5.01637 12.1456C5.83499 12.6827 6.78342 12.9888 7.76157 13.0317C8.73972 13.0746 9.7113 12.8526 10.5738 12.3892C11.4363 11.9258 12.1577 11.2382 12.6618 10.3988C13.1954 9.51432 13.4623 8.49992 13.4383 7.47649C13.4295 7.1007 13.6813 6.75364 14.0531 6.69822C14.4243 6.64289 14.7738 6.899 14.792 7.27386C14.8571 8.61125 14.5242 9.94365 13.8277 11.099C11.8936 14.3172 7.71759 15.3587 4.49939 13.4253C3.3701 12.7491 2.46246 11.7583 1.88759 10.5742C1.32113 9.41309 1.09763 8.11445 1.24333 6.83074C1.38903 5.54703 1.89856 4.33151 2.71083 3.32684ZM12.8909 3.27101C13.1496 2.99886 13.5799 2.98792 13.8521 3.24658C14.1243 3.50528 14.1352 3.93568 13.8765 4.20786L7.99291 10.3975L5.80045 8.20447C5.53505 7.939 5.53508 7.50866 5.80051 7.24323C6.06597 6.97777 6.49636 6.97777 6.76181 7.24323L7.96844 8.44985L12.8909 3.27101Z" fill="var(--fill-0, black)" fill-opacity="0.87"/>
</g>
</svg>
