<svg preserveAspectRatio="none" width="100%" height="100%" overflow="visible" style="display: block;" viewBox="0 0 12 13.1142" fill="none" xmlns="http://www.w3.org/2000/svg">
<path id="Union" d="M12 13.1142H0V11.7811H12V13.1142ZM7.72363 0.390524C8.24433 -0.130175 9.08868 -0.130175 9.60938 0.390524L11.2598 2.03994C11.7804 2.56053 11.7801 3.40496 11.2598 3.92568L4.42383 10.7616L0.867188 11.5819C0.387315 11.6927 -0.0429645 11.2629 0.0673828 10.7831L0.888672 7.22549L7.72363 0.390524ZM2.10156 7.89834L1.60645 10.0429L3.75195 9.54775L7.9541 5.34463L6.30469 3.69521L2.10156 7.89834ZM7.24707 2.75185L8.89746 4.40224L10.3164 2.9833L8.66699 1.33291L7.24707 2.75185Z" fill="var(--fill-0, #2F3033)"/>
</svg>
