<svg preserveAspectRatio="none" width="100%" height="100%" overflow="visible" style="display: block;" viewBox="0 0 34.125 34.125" fill="none" xmlns="http://www.w3.org/2000/svg">
<path id="Vector" d="M34.125 17.0625C34.125 21.5878 32.3273 25.9277 29.1275 29.1275C25.9277 32.3274 21.5878 34.125 17.0625 34.125C12.2704 34.125 7.97062 32.1263 4.875 28.9429V31.6875C4.875 32.0754 4.72092 32.4474 4.44664 32.7217C4.17237 32.9959 3.80038 33.15 3.4125 33.15C3.02462 33.15 2.65263 32.9959 2.37836 32.7217C2.10408 32.4474 1.95 32.0754 1.95 31.6875V24.8625C1.95 24.4746 2.10408 24.1026 2.37836 23.8284C2.65263 23.5541 3.02462 23.4 3.4125 23.4H10.2375C10.6254 23.4 10.9974 23.5541 11.2716 23.8284C11.5459 24.1026 11.7 24.4746 11.7 24.8625C11.7 25.2504 11.5459 25.6224 11.2716 25.8966C10.9974 26.1709 10.6254 26.325 10.2375 26.325H6.43744C7.75438 27.8531 9.38509 29.0795 11.2186 29.9207C13.052 30.7619 15.0452 31.1983 17.0625 31.2C20.812 31.2 24.4079 29.7105 27.0592 27.0592C29.7105 24.4079 31.2 20.812 31.2 17.0625C31.2 16.8992 31.1805 16.7383 31.1756 16.575H31.2975C31.5022 16.0095 32.0287 15.6 32.6625 15.6C33.2962 15.6 33.8227 16.0095 34.0275 16.575H34.1006C34.1055 16.7383 34.125 16.8968 34.125 17.0625ZM30.7125 10.725H23.8875C23.4996 10.725 23.1276 10.5709 22.8534 10.2966C22.5791 10.0224 22.425 9.65038 22.425 9.26251C22.425 8.87463 22.5791 8.50263 22.8534 8.22836C23.1276 7.95409 23.4996 7.8 23.8875 7.8H27.6924C26.3744 6.27194 24.7428 5.04561 22.9086 4.2044C21.0743 3.36319 19.0804 2.92684 17.0625 2.925C13.3994 2.9267 9.88024 4.35108 7.24723 6.8977C4.61421 9.44431 3.07325 12.914 2.94937 16.575H2.8275C2.62519 17.1405 2.09625 17.55 1.4625 17.55C1.162 17.5489 0.869264 17.4545 0.62474 17.2799C0.380215 17.1052 0.19598 16.8589 0.0974999 16.575H0.024375C0.024375 16.4848 0.0414375 16.3995 0.043875 16.3118C0.034125 16.2338 0 16.1655 0 16.0875C0 15.9096 0.0438751 15.7438 0.102375 15.5854C0.853125 6.85913 8.14125 4.70214e-06 17.0625 4.70214e-06C19.3354 -0.00168746 21.5854 0.453357 23.6791 1.33812C25.7727 2.22288 27.6671 3.51931 29.25 5.15044V2.4375C29.25 2.04963 29.4041 1.67763 29.6784 1.40336C29.9526 1.12909 30.3246 0.975005 30.7125 0.975005C31.1004 0.975005 31.4724 1.12909 31.7466 1.40336C32.0209 1.67763 32.175 2.04963 32.175 2.4375V9.26251C32.175 9.65038 32.0209 10.0224 31.7466 10.2966C31.4724 10.5709 31.1004 10.725 30.7125 10.725Z" fill="#FFFFFF" fill-opacity="0.95"/>
</svg>
